<?xml version="1.0" standalone="no"?><!DOCTYPE svg PUBLIC "-//W3C//DTD SVG 1.1//EN" "http://www.w3.org/Graphics/SVG/1.1/DTD/svg11.dtd"><svg t="1596429121692" class="icon" viewBox="0 0 1024 1024" version="1.1" xmlns="http://www.w3.org/2000/svg" p-id="2903" xmlns:xlink="http://www.w3.org/1999/xlink" width="200" height="200"><defs><style type="text/css"></style></defs><path d="M0 0m153.6 0l716.8 0q153.6 0 153.6 153.6l0 716.8q0 153.6-153.6 153.6l-716.8 0q-153.6 0-153.6-153.6l0-716.8q0-153.6 153.6-153.6Z" fill="#4CA4FE" p-id="2904"></path><path d="M459.8784 816.41984l-281.53344-181.3248a21.92896 21.92896 0 0 1-5.54496-31.75936l56.832-74.32192 252.2112 164.48512 301.55776-175.45216 69.4528 78.13632a21.92896 21.92896 0 0 1-5.83168 33.792l-342.272 188.01664a43.86304 43.86304 0 0 1-44.87168-1.57184zM322.8416 402.90816l144.1792-188.92288a20.48 20.48 0 0 1 31.36-1.4336l169.8816 184.87296-186.4192 104.17664-159.0016-98.69312z" fill="#FFFFFF" p-id="2905"></path><path d="M300.91264 430.32064l-49.34656 65.792 230.27712 148.03968v-98.69312L300.91264 430.32064z m180.93056 115.13856v98.69312l274.14528-153.51808-60.3136-65.792-213.83168 120.61696z" fill="#FFFFFF" opacity=".802" p-id="2906"></path></svg>